<?xml version="1.0" standalone="no"?><!DOCTYPE svg PUBLIC "-//W3C//DTD SVG 1.1//EN" "http://www.w3.org/Graphics/SVG/1.1/DTD/svg11.dtd"><svg class="icon" height="512" viewBox="0 0 1024 1024" version="1.1" xmlns="http://www.w3.org/2000/svg"><path d="M499.356 705.841V345.317h-41.921c-31.703 0-48.472-16.769-50.306-50.306 1.834-27.947 18.603-43.755 50.306-47.511h100.612c29.781 1.878 45.633 18.646 47.51 50.306V705.84c-1.877 33.537-19.563 50.306-53.1 50.306-35.415 0-53.101-16.768-53.101-50.305z" fill="" /><path d="M521.715 1000.414c-66.546 0-131.112-13.038-191.904-38.751-58.708-24.831-111.43-60.376-156.7-105.646s-80.814-97.991-105.646-156.7c-25.713-60.792-38.75-125.358-38.75-191.904s13.038-131.111 38.75-191.904c24.832-58.708 60.376-111.43 105.646-156.7 45.27-45.27 97.991-80.814 156.7-105.646 60.792-25.713 125.358-38.75 191.904-38.75s131.111 13.038 191.904 38.75c58.708 24.832 111.43 60.376 156.699 105.646 45.27 45.27 80.814 97.991 105.646 156.7 25.713 60.792 38.751 125.358 38.751 191.904s-13.038 131.112-38.751 191.904c-24.831 58.709-60.376 111.431-105.646 156.7s-97.991 80.814-156.699 105.646c-60.793 25.713-125.358 38.751-191.904 38.751z m0-946.001c-249.785 0-453 203.215-453 453 0 249.786 203.215 453.001 453 453.001s453-203.215 453-453.001c0-249.785-203.215-453-453-453z" fill="" /></svg>